<svg width="51" height="55" viewBox="0 0 51 55" fill="none" xmlns="http://www.w3.org/2000/svg">
<path d="M14.8013 41.5252L25.2763 52.0002L39.8832 37.3933L34.9367 32.4468L14.8013 41.5252Z" fill="white"/>
<path d="M10.6694 17.6069L15.5578 22.4952L35.6932 13.4751L25.2763 3L10.6694 17.6069Z" fill="white"/>
<path d="M14.6267 26.4523L8.2253 20.0509L0.776367 27.4998L12.3571 39.0806L35.8678 28.5473L42.2692 34.9487L49.7764 27.4998L38.1374 15.8608L14.6267 26.4523Z" fill="#E87722"/>
<g clip-path="url(#clip0_9019_36259)">
<path d="M49.473 28.9056L48.9447 26.1282C48.9206 26.0027 48.3312 23.0112 46.287 19.3452C45.0163 17.0673 44.9714 15.2072 45.0289 14.832L45.0474 14.7261C45.151 14.1552 45.3904 13.2643 46.9558 12.2744C47.346 12.0281 47.6844 11.7564 47.9687 11.4606L48.6293 12.3838L48.9505 10.7401C49.122 9.8584 49.1001 9.10103 49.0495 8.61645C48.9977 7.70253 48.6501 6.93825 48.3174 6.31094C48.2507 6.17052 48.2426 5.66752 48.238 5.3648C48.2242 4.52685 48.2092 3.57611 47.5877 2.80837C46.8936 1.95086 45.5803 1.72641 44.13 1.56756L44.8643 1.20039L42.3494 0.965578C42.2389 0.955219 41.2225 0.883856 39.6387 1.56296C39.0574 1.81273 38.4796 2.25473 37.8684 2.72319C37.515 2.99369 37.1502 3.27454 36.7738 3.52891C36.1937 3.89724 35.6607 4.1873 35.2084 4.38413C34.7376 4.57174 34.2784 4.6926 33.8018 4.7513C33.1596 4.83187 32.698 4.81 32.3688 4.74555L33.5613 3.09037L30.7574 3.31712C28.232 3.52086 25.8747 4.26787 24.9182 4.60397C23.9617 4.26902 21.6044 3.52201 19.0791 3.31712L16.9036 3.14102L17.6 4.71562C17.2685 4.79965 16.7701 4.84338 16.0369 4.7513C15.527 4.68684 15.0344 4.55448 14.5533 4.35305C14.1055 4.14932 13.606 3.87307 13.0892 3.54503C12.6932 3.27684 12.326 2.99599 11.9715 2.72319C11.3603 2.25473 10.7836 1.81158 10.2012 1.56296C8.61857 0.883856 7.60107 0.955219 7.49057 0.965578L5.52807 1.14974L6.07366 1.52958C4.48409 1.69418 3.00617 1.88064 2.25455 2.80952C1.633 3.57726 1.61804 4.52685 1.60423 5.36825C1.59962 5.66867 1.59156 6.17167 1.5248 6.31094C1.19101 6.93825 0.843398 7.70368 0.791602 8.61645C0.740957 9.10218 0.717936 9.85956 0.89059 10.7412L1.20942 12.3642L1.86896 11.4583C2.15442 11.7541 2.49282 12.0281 2.88417 12.2756C4.44956 13.2643 4.69012 14.1218 4.79256 14.6801L4.82249 14.87C4.86048 15.1692 4.97558 16.7933 3.55291 19.3452C1.49833 23.0296 0.918215 26.005 0.894043 26.1293L0.365723 28.9056L1.99212 27.9721C1.77918 29.8299 1.8609 32.3702 2.83352 35.5113L3.61046 38.0217L4.4346 36.8626C4.75343 38.4648 5.19657 40.1546 5.77094 41.1962L6.71478 42.9055L7.4756 41.9444C7.91875 43.6537 8.6485 45.5206 9.83636 46.7085L10.992 47.8641L11.7977 46.5727C12.5885 48.0287 13.6842 49.624 15.0413 50.5851L16.0174 51.2758L16.7885 50.3572C16.8818 50.2467 17.2374 49.822 17.615 49.3628C18.8926 50.7106 20.7826 52.6017 22.1823 53.5617L22.8878 54.0451L23.613 53.587C23.7511 53.4995 24.3485 53.1186 24.9171 52.7169C25.549 53.1623 26.2154 53.5836 26.2235 53.5882L26.9463 54.0451L27.6519 53.5617C29.0516 52.6017 30.9427 50.7106 32.2192 49.3628C32.5967 49.822 32.9524 50.2467 33.0468 50.3595L33.8157 51.2746L34.7929 50.584C36.1499 49.6229 37.2457 48.0276 38.0365 46.5715L38.8422 47.863L39.9978 46.7073C41.1857 45.5195 41.9143 43.6525 42.3586 41.9432L43.1205 42.9044L44.0632 41.1939C44.6376 40.1523 45.0807 38.4625 45.3996 36.8615L46.2237 38.0206L47.0006 35.5102C47.9733 32.369 48.055 29.8287 47.842 27.9709L49.4684 28.9044L49.473 28.9056Z" fill="white"/>
<path d="M5.52577 14.6743V14.6662C5.52002 14.6386 5.52347 14.6605 5.52577 14.6743ZM48.4705 27.499L48.2357 26.264C48.2127 26.1431 47.651 23.2747 45.6563 19.6962C44.229 17.1375 44.2543 15.1174 44.3153 14.7215C44.313 14.7307 44.313 14.7364 44.3153 14.7134C44.4247 14.078 44.6296 12.8902 46.569 11.6643C47.2033 11.2638 47.666 10.8011 47.9583 10.282C48.1195 10.4339 48.2403 10.6019 48.2403 10.6019C48.3934 9.8181 48.3784 9.14244 48.3278 8.67283C48.2875 7.89588 47.979 7.21563 47.6775 6.64817C47.5301 6.37077 47.5221 5.86547 47.514 5.37629C47.5014 4.62006 47.4899 3.83737 47.0248 3.26301C46.4298 2.5275 45.0013 2.38132 43.4889 2.22593C42.9744 2.17298 42.4875 2.12234 42.0812 2.05098C42.1123 1.80235 42.2826 1.6838 42.2826 1.68265C42.2826 1.68265 41.3837 1.59862 39.9242 2.22478C39.1254 2.56779 38.2563 3.39652 37.1617 4.13779C36.463 4.58093 35.9036 4.86869 35.4766 5.05285C34.9909 5.24737 34.4649 5.3947 33.8928 5.46607C32.4437 5.64793 31.6771 5.36708 31.2731 5.04249C31.3087 4.98494 31.3329 4.94926 31.3341 4.94926L32.0661 3.93405L30.8196 4.03534C28.1342 4.25289 25.6526 5.10119 24.9229 5.36938C24.1931 5.10119 21.7115 4.25289 19.025 4.03534L18.0581 3.95707L18.4506 4.84451C18.4506 4.84451 18.4817 4.91588 18.5519 5.05745C18.1422 5.37514 17.3779 5.64448 15.9506 5.46607C15.3348 5.38895 14.7743 5.22435 14.2575 5.00796C13.8454 4.82034 13.324 4.5441 12.6875 4.14009C11.5905 3.39883 10.7204 2.56664 9.91924 2.22363C8.45859 1.59747 7.56078 1.6815 7.56078 1.6815C7.56078 1.6815 7.73229 1.8012 7.76337 2.04982C7.35705 2.12119 6.87017 2.17183 6.35566 2.22478C4.84321 2.38017 3.41479 2.52635 2.81971 3.26185C2.3547 3.83622 2.34204 4.61891 2.33053 5.37514C2.32247 5.86432 2.31441 6.36962 2.16708 6.64702C1.86551 7.21448 1.55589 7.89473 1.51675 8.67168C1.46611 9.14129 1.45114 9.81695 1.60423 10.6008C1.60423 10.6008 1.72509 10.4327 1.88623 10.2808C2.17859 10.7999 2.6413 11.2626 3.27552 11.6632C5.215 12.889 5.41988 14.0297 5.52807 14.6651C5.53153 14.6881 5.53153 14.6823 5.52807 14.6731L5.54304 14.7779C5.6144 15.3419 5.62361 17.1202 4.18828 19.695C2.19355 23.2724 1.63185 26.1419 1.60883 26.2628L1.37402 27.4979L2.46404 26.8728C2.46404 26.8728 2.68389 26.7474 2.97165 26.5828C2.57224 28.2472 2.27067 31.2375 3.52759 35.2984L3.8729 36.4148L4.5497 35.4629C4.5497 35.4629 4.67516 35.2857 4.84667 35.044C5.11601 36.736 5.64433 39.4662 6.40631 40.8486L6.82643 41.6094L7.36511 40.9292C7.38238 40.9073 7.59301 40.6403 7.85545 40.3053C8.16392 41.9697 8.87411 44.7253 10.3509 46.2009L10.8654 46.7154L11.2498 46.0984C11.2717 46.0639 11.5652 45.592 11.8656 45.1005C12.509 46.4714 13.7855 48.8125 15.4637 49.9993L15.8977 50.3066L16.2395 49.8991C16.2833 49.8473 17.0498 48.9346 17.5805 48.2704C18.5853 49.3547 20.976 51.8616 22.5943 52.97L22.9086 53.1853L23.2297 52.9816C23.2792 52.9505 24.2484 52.3358 24.9217 51.8282C25.5951 52.3358 26.5642 52.9505 26.6137 52.9816L26.9348 53.1853L27.2491 52.97C28.8674 51.8605 31.2581 49.3535 32.2629 48.2704C32.7947 48.9346 33.5601 49.8473 33.6039 49.8991L33.9457 50.3066L34.3797 49.9993C36.0567 48.8125 37.3344 46.4714 37.9778 45.1005C38.277 45.592 38.5717 46.0639 38.5936 46.0984L38.978 46.7154L39.4925 46.2009C40.9681 44.7253 41.6783 41.9697 41.988 40.3053C42.2492 40.6414 42.4599 40.9073 42.4783 40.9292L43.017 41.6094L43.4359 40.8486C44.1991 39.4662 44.7262 36.736 44.9967 35.044C45.1682 35.2868 45.2914 35.4595 45.2937 35.4629L45.9705 36.4148L46.3158 35.2984C47.5727 31.2375 47.2712 28.246 46.8729 26.5828C47.1618 26.7474 47.3759 26.8705 47.3805 26.8728L48.4705 27.4979V27.499ZM44.3153 14.7146C44.3153 14.7146 44.3153 14.7203 44.3153 14.7226C44.3176 14.7088 44.3211 14.6869 44.3153 14.7146Z" fill="#00582C"/>
<path d="M48.6929 2.96364H48.3901V2.76221H49.2154V2.96364H48.9127V3.75669H48.694V2.96364H48.6929Z" fill="white"/>
<path d="M49.3813 2.76238H49.6173L49.8786 3.18366L50.141 2.76238H50.377V3.75802H50.1594V3.10769L49.8797 3.53242H49.874L49.5966 3.11114V3.75687H49.3813V2.76123V2.76238Z" fill="white"/>
<path d="M43.1641 16.3031C42.0764 11.1891 40.5616 9.89993 40.5616 9.89993C41.3386 11.0475 41.0796 13.6741 41.0796 13.6741C39.5994 9.93676 36.2499 8.36331 36.2499 8.36331C39.6178 4.75485 43.2999 5.29123 43.2999 5.29123C41.6528 5.47654 41.2085 7.27099 41.2085 7.27099C43.7246 6.88194 45.6676 7.78895 45.6676 7.78895C44.6685 7.77054 43.2251 9.65822 43.7431 10.6021C44.162 11.3652 45.32 10.99 45.747 10.8196C45.8471 10.7724 45.8897 10.7402 45.9599 10.6964C47.6473 9.63059 47.2871 8.37713 46.6563 7.19157C46.3778 6.66785 46.3674 6.02098 46.357 5.39482C46.3478 4.83427 46.3386 4.25416 46.1245 3.98942C45.831 3.628 44.3497 3.47606 43.369 3.37477C42.8038 3.31722 42.2698 3.26197 41.8059 3.17565C40.8402 2.99609 40.7343 3.07205 39.4359 3.98482C39.1125 4.21272 38.7096 4.49587 38.2181 4.82621C37.5839 5.25209 37.0418 5.57208 36.5814 5.81379H36.5848C36.2372 6.01177 35.8689 6.17406 35.4902 6.30643C35.3222 6.36744 35.1748 6.41348 35.0482 6.44686C32.2386 7.25488 29.0433 6.59419 29.0353 6.59304H29.0341C29.1285 5.84372 29.3852 5.50071 29.6039 5.34418C27.1764 5.72632 25.1552 6.51477 25.131 6.52398L24.9192 6.60685L24.7074 6.52398C24.6844 6.51477 22.7449 5.76085 20.3899 5.3695C20.6006 5.5364 20.8365 5.8817 20.9263 6.59304C20.9263 6.59304 17.7057 7.25142 14.8811 6.46988C14.6877 6.42384 14.4403 6.34787 14.1318 6.22241C13.8786 6.12342 13.6311 6.01177 13.3928 5.88286C12.9048 5.63423 12.3178 5.29353 11.6203 4.82506C11.1276 4.49472 10.7259 4.21157 10.4025 3.98366C9.10413 3.06975 8.99823 2.99493 8.03252 3.17449C7.56866 3.26082 7.03458 3.31492 6.46943 3.37362C5.48876 3.47376 4.00624 3.6257 3.71388 3.98827C3.49979 4.253 3.49058 4.83197 3.48137 5.39367C3.47101 6.01983 3.46065 6.6667 3.1821 7.19042C2.55134 8.37597 2.18762 9.63635 3.87502 10.7022C3.94523 10.7459 3.99127 10.777 4.09141 10.8184C4.51844 10.99 5.67637 11.3652 6.09535 10.6009C6.61331 9.65706 5.16992 7.76939 4.17083 7.7878C4.17083 7.7878 6.11376 6.88079 8.6299 7.26984C8.6299 7.26984 8.18561 5.47539 6.53849 5.29008C6.53849 5.29008 10.2206 4.7537 13.5885 8.36216C13.5885 8.36216 10.239 9.93446 8.75882 13.673C8.75882 13.673 8.49984 11.0452 9.27678 9.89878C9.27678 9.89878 7.76088 11.1879 6.67431 16.3019C6.52698 17.255 6.13218 18.5741 5.19294 20.258C4.0776 22.2585 3.42727 24.0472 3.07966 25.1878C3.31562 25.0543 3.54122 24.9277 3.70697 24.8356L5.35063 23.9263L4.50233 25.6022C4.49888 25.6091 4.07415 26.4781 3.87847 28.0562C3.72078 29.3258 3.6874 31.294 4.3055 33.801C4.45859 33.5834 4.61053 33.3659 4.73369 33.1886L5.60041 31.9375L5.78227 33.4487C5.78802 33.4925 6.25074 37.2667 7.0484 39.4548C7.29587 39.136 7.56866 38.7803 7.75397 38.5271L8.64372 37.3104L8.79565 38.8102C8.80026 38.8528 9.20887 42.7007 10.6868 44.8059C10.9653 44.3524 11.3026 43.7965 11.4326 43.5547L12.03 42.444L12.4812 43.6215C12.495 43.6583 13.8118 47.0504 15.711 48.7228C16.1933 48.1427 16.8747 47.3128 17.0658 47.0401L17.4824 46.445L17.9682 46.986C17.9992 47.0205 20.9758 50.3216 22.9348 51.7938C23.3814 51.5026 24.1687 50.9766 24.5359 50.6531L24.9181 50.317L25.3002 50.6531C25.6674 50.9766 26.4547 51.5026 26.9013 51.7938C28.8615 50.3216 31.8369 47.0205 31.8679 46.986L32.3537 46.445L32.7703 47.0401C32.9614 47.314 33.6428 48.1427 34.1251 48.7228C36.0243 47.0504 37.3411 43.6583 37.3549 43.6215L37.8061 42.4452L38.4035 43.5536C38.5335 43.7953 38.8708 44.3513 39.1493 44.8048C40.6272 42.6995 41.0359 38.8517 41.0405 38.8091L41.1935 37.3116L42.0821 38.5271C42.2675 38.7803 42.5402 39.136 42.7877 39.4548C43.5854 37.2667 44.0481 33.4913 44.0538 33.4487L44.2369 31.9375L45.1036 33.1886C45.2267 33.3659 45.3787 33.5846 45.5318 33.8021C46.814 28.6214 45.351 25.6344 45.3349 25.6034L44.4866 23.9275L46.1303 24.8368C46.2972 24.9289 46.5228 25.0555 46.7588 25.189C46.4111 24.0483 45.7608 22.2596 44.6455 20.2592C43.7062 18.5752 43.3114 17.2561 43.1641 16.3031ZM23.1639 10.4662C23.1639 10.4662 22.9107 9.73303 22.456 9.32902C22.456 9.32902 24.2873 9.68239 24.9192 10.3638C25.5511 9.68239 27.3824 9.32902 27.3824 9.32902C26.9277 9.73303 26.6745 10.4662 26.6745 10.4662C27.8117 10.0116 29.4542 10.3396 29.4542 10.3396C26.8495 10.6654 24.9526 13.5705 24.9192 13.6223V13.6246C24.9192 13.6246 24.9192 13.6246 24.9192 13.6235V13.6246V13.6223C24.8858 13.5705 22.9889 10.6654 20.3842 10.3396C20.3842 10.3396 22.0267 10.0116 23.1639 10.4662ZM32.7151 12.8926C32.7151 12.8926 29.8594 13.1205 29.3794 14.2071L29.3288 13.6005C29.3288 13.6005 28.1662 14.0045 27.8635 15.243C27.8635 15.243 27.3329 13.0699 29.4301 12.6152C31.5272 12.1605 32.7151 12.8926 32.7151 12.8926ZM27.4031 19.488C27.4031 19.488 26.2164 19.1081 24.9192 19.1081C23.6232 19.1081 22.4353 19.488 22.4353 19.488C22.9521 18.5787 24.8847 18.5246 24.9181 18.5234C24.9514 18.5234 26.8829 18.5787 27.4008 19.488H27.4031ZM21.976 15.2418C21.6733 14.0033 20.5108 13.5993 20.5108 13.5993L20.4601 14.2059C19.9802 13.1193 17.1245 12.8914 17.1245 12.8914C17.1245 12.8914 18.3123 12.1582 20.4095 12.614C22.5067 13.0687 21.976 15.2418 21.976 15.2418ZM19.9042 8.74891C15.2805 9.38082 13.4354 11.882 13.4354 11.882C14.6233 11.882 15.482 12.5899 15.482 12.5899C12.8288 12.6658 11.3889 14.283 11.3889 14.283C12.7529 14.2577 13.0821 14.9656 13.0821 14.9656C9.2411 16.0015 7.82649 21.813 7.82649 21.813C8.12921 7.86492 19.9053 8.74891 19.9053 8.74891H19.9042ZM41.243 30.4653C40.8954 29.8576 39.9401 29.1911 39.9401 29.1911C40.519 31.8258 39.3611 35.7071 39.3611 35.7071C39.0135 35.0993 38.2607 34.6067 38.2607 34.6067C38.5508 37.9953 34.8433 42.6569 34.8433 42.6569C34.7858 41.4403 33.9743 40.485 33.9743 40.485C32.9338 44.2569 28.6174 45.195 26.9669 45.8902C25.3739 46.5612 24.9491 48.0483 24.9215 48.1243V48.1289C24.9215 48.1289 24.9215 48.1278 24.9215 48.1266V48.1289V48.1243C24.8939 48.0495 24.4703 46.5612 22.8761 45.8902C21.2256 45.195 16.9081 44.2569 15.8687 40.485C15.8687 40.485 15.0584 41.4403 14.9997 42.6569C14.9997 42.6569 11.2934 37.9941 11.5823 34.6067C11.5823 34.6067 10.8295 35.0993 10.4819 35.7071C10.4819 35.7071 9.32397 31.827 9.90294 29.1911C9.90294 29.1911 8.94759 29.8576 8.59998 30.4653C8.59998 30.4653 6.37044 22.27 12.8565 17.781C12.8565 17.781 10.6845 22.5301 14.1594 25.2523C14.1594 25.2523 14.2342 23.9482 15.8675 22.27C15.8675 22.27 14.4495 22.133 13.7255 22.4231C13.7255 22.4231 14.6014 18.9769 16.2439 17.2895C16.2439 17.2895 15.7455 17.1894 15.3128 17.3989C15.3128 17.3989 15.9527 16.4067 16.4718 15.9175C15.04 15.2326 13.958 15.7379 13.958 15.7379C16.2785 13.3219 19.4967 16.3906 20.7364 16.9246C22.6275 17.7396 23.8257 15.6827 23.8257 15.6827C23.866 17.1525 23.2871 18.0365 22.4629 18.3991C21.8494 18.673 21.473 19.0943 20.9355 20.2419L20.7617 19.778C20.7617 19.778 19.0824 22.095 18.9086 23.7456C18.9086 23.7456 19.4012 23.6006 19.9514 23.4855C19.9514 23.4855 15.086 28.3221 18.0108 32.5786C18.0108 32.5786 18.0971 30.8405 19.8927 30.7542C21.6883 30.6679 23.5414 30.5228 23.5127 29.335C23.5127 29.335 21.1381 29.2774 20.6455 27.7132C20.6455 27.7132 21.1381 28.2634 22.0934 28.1771C22.7806 28.1149 23.2548 27.1342 23.4666 26.5886C23.4666 26.5852 23.4655 26.5806 23.4655 26.5771C23.4655 26.5771 22.8761 27.4853 21.9346 27.4784C20.9931 27.4715 20.3577 26.1892 20.7893 25.0313C21.221 23.8734 23.7118 23.52 24.9204 23.52H24.9227C26.1301 23.52 28.6209 23.8734 29.0537 25.0313C29.4853 26.1892 28.8511 27.4715 27.9084 27.4784C27.3847 27.4818 26.9715 27.2033 26.7067 26.9547C26.9128 27.5233 27.2489 28.1299 27.7496 28.1759C28.7049 28.2622 29.1976 27.712 29.1976 27.712C28.7049 29.2763 26.3304 29.3338 26.3304 29.3338C26.3016 30.5217 28.1547 30.6656 29.9503 30.753C31.7459 30.8394 31.8323 32.5774 31.8323 32.5774C34.757 28.3209 29.8916 23.4843 29.8916 23.4843C30.4418 23.6006 30.9345 23.7445 30.9345 23.7445C30.7607 22.0939 29.0813 19.7769 29.0813 19.7769L28.9075 20.2407C28.6715 19.7516 28.4506 19.3683 28.2434 19.0817C27.9832 18.7456 27.7173 18.5487 27.3801 18.3979C27.3076 18.3657 27.2374 18.3277 27.1683 18.2874C27.1533 18.2794 27.1384 18.2702 27.1234 18.261C27.0992 18.246 27.0739 18.2299 27.0509 18.2138C27.0187 18.1919 26.9876 18.17 26.9565 18.1459C26.9473 18.139 26.9393 18.1321 26.93 18.1252C26.8921 18.0952 26.8541 18.063 26.8184 18.0296C26.8138 18.025 26.8092 18.0216 26.8046 18.017C26.7678 17.9824 26.7309 17.9456 26.6964 17.9076C26.6895 17.8996 26.6814 17.8915 26.6745 17.8823C26.6446 17.8478 26.6147 17.8132 26.5859 17.7764C26.5698 17.7568 26.556 17.735 26.541 17.7142C26.5214 17.6878 26.503 17.6613 26.4846 17.6337C26.4581 17.5934 26.4317 17.5496 26.4075 17.5071C26.4017 17.4978 26.396 17.4886 26.3914 17.4794C26.1773 17.0938 26.0438 16.6035 26.0207 16.005C26.0161 15.8991 26.015 15.792 26.0173 15.6804C26.0173 15.6804 26.5606 16.6116 27.4917 16.9718C27.5332 16.9879 27.5758 17.0029 27.6195 17.0167C27.6195 17.0167 27.6218 17.0167 27.623 17.0167C27.6656 17.0305 27.7093 17.042 27.753 17.0536C27.7553 17.0536 27.7565 17.0535 27.7588 17.0547C27.8025 17.0651 27.8463 17.0743 27.8912 17.0823C27.8935 17.0823 27.8969 17.0823 27.8992 17.0835C27.9429 17.0904 27.9878 17.0973 28.0327 17.1019C28.0362 17.1019 28.0408 17.1019 28.0442 17.1019C28.0891 17.1065 28.134 17.1088 28.1801 17.11C28.1847 17.11 28.1893 17.11 28.1939 17.11C28.2388 17.11 28.2848 17.11 28.3308 17.1076C28.3366 17.1076 28.3424 17.1076 28.3493 17.1076C28.3942 17.1053 28.4402 17.1007 28.4862 17.095C28.4931 17.095 28.5012 17.0927 28.5081 17.0915C28.5541 17.0846 28.6002 17.0777 28.6462 17.0674C28.6543 17.0651 28.6635 17.0639 28.6715 17.0616C28.7176 17.0512 28.7636 17.0397 28.8097 17.0271C28.82 17.0248 28.8292 17.0213 28.8396 17.0179C28.8856 17.0041 28.9317 16.9891 28.9777 16.9718C29.0203 16.9557 29.0629 16.9408 29.1066 16.9223C30.3463 16.3883 33.5646 13.3196 35.885 15.7356C35.885 15.7356 34.8031 15.2292 33.3712 15.9152C33.8903 16.4032 34.5406 17.5013 34.5406 17.5013C34.1124 17.24 33.5991 17.2872 33.5991 17.2872C35.4085 19.1852 36.0749 22.552 36.0749 22.552C35.3509 22.2619 33.9755 22.2677 33.9755 22.2677C35.3038 23.2357 35.6836 25.25 35.6836 25.25C39.1585 22.5278 36.9866 17.7787 36.9866 17.7787C43.4737 22.2677 41.243 30.463 41.243 30.463V30.4653ZM21.6135 23.6466C21.0333 22.8674 21.0656 21.8879 21.0656 21.8879L20.7824 22.0294C20.9758 20.8116 21.8045 20.2948 21.8045 20.2948C21.7251 20.342 21.4788 21.2041 21.4788 21.2041L21.8678 21.0695C21.3879 21.8487 21.6135 23.6466 21.6135 23.6466ZM28.0362 20.2948C28.0362 20.2948 28.8649 20.8116 29.0583 22.0294L28.7751 21.8879C28.7751 21.8879 28.8074 22.8674 28.2273 23.6466C28.2273 23.6466 28.4529 21.8487 27.9729 21.0695L28.3619 21.2041C28.3619 21.2041 28.1145 20.342 28.0362 20.2948ZM36.7586 14.9644C36.7586 14.9644 37.0867 14.2566 38.4518 14.2819C38.4518 14.2819 37.0119 12.6647 34.3588 12.5887C34.3588 12.5887 35.2174 11.8808 36.4053 11.8808C36.4053 11.8808 34.5602 9.37967 29.9365 8.74776C29.9365 8.74776 41.7115 7.86377 42.0154 21.8119C42.0154 21.8119 40.6008 16.0004 36.7598 14.9644H36.7586ZM29.6453 35.5712C29.7259 36.065 29.8076 37.2368 28.9973 38.1357C28.5127 38.6732 27.6529 39.0485 26.4409 39.2488C25.5465 39.3972 24.7799 39.3903 24.773 39.3903C24.6464 39.3926 21.6307 39.4191 20.5488 38.1334C19.7707 37.2091 19.8363 36.0524 19.9076 35.5678C19.7937 35.653 19.6372 35.7853 19.4818 35.9729C19.2262 36.2791 18.9201 36.7913 18.8452 37.5429L19.308 37.1746L19.3103 37.3714C19.3114 37.4923 19.3977 40.3376 23.5944 40.4527L24.0145 40.4642L23.6312 40.6369C23.5829 40.6588 22.4802 41.1387 20.4452 40.7313C20.8285 41.2113 21.8322 42.4003 22.791 42.9263C22.8428 42.7249 22.9878 42.3266 23.3699 41.9433L23.4678 41.8455L23.5253 41.9709C23.5311 41.9836 24.0824 43.1669 24.773 43.7136C25.4648 43.1669 26.015 41.9836 26.0207 41.9709L26.0783 41.8455L26.1761 41.9433C26.5583 42.3255 26.7033 42.7249 26.7551 42.9263C27.7139 42.4003 28.7187 41.2113 29.1009 40.7313C27.0659 41.1387 25.9632 40.6588 25.9148 40.6369L25.5316 40.4642L25.9517 40.4527C30.1552 40.3365 30.2358 37.4002 30.2358 37.3714L30.2381 37.1746L30.702 37.5429C30.6271 36.7902 30.321 36.278 30.0654 35.9729C29.9112 35.7888 29.7581 35.6564 29.6442 35.5712H29.6453Z" fill="#AF9C68"/>
<path d="M32.0615 16.8093C31.8796 16.9474 31.7001 17.0763 31.524 17.1972C31.8359 17.2823 32.0661 17.5666 32.0661 17.9062C32.0661 18.3125 31.7369 18.6417 31.3306 18.6417C30.9243 18.6417 30.5951 18.3125 30.5951 17.9062C30.5951 17.8578 30.5997 17.8107 30.6089 17.7646C30.4201 17.8682 30.236 17.9614 30.0552 18.0443C30.0955 18.7464 30.6779 19.3058 31.3904 19.3058C32.1029 19.3058 32.7291 18.705 32.7291 17.9672C32.7291 17.4734 32.4597 17.0418 32.0603 16.8104L32.0615 16.8093ZM19.1044 17.8084C19.1044 18.2147 18.7752 18.5439 18.3689 18.5439C17.9626 18.5439 17.6334 18.2147 17.6334 17.8084C17.6334 17.4688 17.8636 17.1845 18.1755 17.0993C17.9994 16.9785 17.8198 16.8495 17.638 16.7114C17.2386 16.9439 16.9692 17.3744 16.9692 17.8682C16.9692 18.606 17.5701 19.2068 18.3079 19.2068C19.0457 19.2068 19.6028 18.6474 19.6431 17.9453C19.4635 17.8636 19.2782 17.7692 19.0894 17.6656C19.0986 17.7117 19.1032 17.7589 19.1032 17.8072L19.1044 17.8084ZM28.1227 25.4868C27.6059 24.7076 26.3674 24.1586 24.9205 24.1586C23.4737 24.1586 22.2352 24.7076 21.7184 25.4868C22.531 25.1001 23.6648 24.8595 24.9205 24.8595C26.1763 24.8595 27.31 25.1001 28.1227 25.4868ZM19.6834 32.721C19.6834 32.721 20.557 32.6336 20.862 32.7533C20.862 32.7533 20.938 33.8341 22.0522 34.7618C22.0522 34.7618 21.7886 33.1112 22.3848 32.4678C22.3848 32.4678 22.95 33.6764 23.3586 33.9204C23.3586 33.9204 23.6682 32.9179 23.9076 32.5576C23.9076 32.5576 24.2702 33.3978 24.7789 33.8456C25.2877 33.3978 25.6503 32.5576 25.6503 32.5576C25.8908 32.9179 26.1924 33.9123 26.1924 33.9123C26.7104 33.4888 27.1247 32.5357 27.1247 32.5357C27.668 33.1273 27.5069 34.7629 27.5069 34.7629C28.6199 33.8352 28.697 32.7544 28.697 32.7544C29.0032 32.6347 29.8757 32.7222 29.8757 32.7222C28.5152 31.6195 24.7789 31.5539 24.7789 31.5539C24.7789 31.5539 21.0692 31.608 19.6822 32.7222L19.6834 32.721ZM27.9109 36.5091C27.8234 35.8541 27.386 35.3718 27.386 35.3718C27.4298 35.9393 26.6344 37.0109 26.6344 37.0109C26.5147 36.3916 26.121 36.0498 26.121 36.0498C25.9898 36.4757 25.3786 37.1306 25.3786 37.1306C25.1933 36.7485 24.7801 36.2248 24.7801 36.2248C24.7801 36.2248 24.3669 36.7485 24.1816 37.1306C24.1816 37.1306 23.5704 36.4757 23.4392 36.0498C23.4392 36.0498 22.9477 36.486 22.9258 37.0109C22.9258 37.0109 22.1512 35.9957 22.1937 35.4282C22.1937 35.4282 21.7356 35.8541 21.6482 36.5091C21.6482 36.5091 21.266 36.7059 20.938 36.684C20.938 36.684 22.1327 38.147 24.7789 38.147C27.4252 38.147 28.6199 36.684 28.6199 36.684C28.2919 36.7059 27.9097 36.5091 27.9097 36.5091H27.9109Z" fill="white"/>
</g>
<defs>
<clipPath id="clip0_9019_36259">
<rect width="50.0086" height="53.0887" fill="white" transform="translate(0.368164 0.958496)"/>
</clipPath>
</defs>
</svg>